<svg xmlns="http://www.w3.org/2000/svg" width="177.838" height="184.024" viewBox="0 0 177.838 184.024"><defs><style>.a{fill:#fff;}</style></defs><path class="a" d="M-1269.445,723.833l-.441.926q-1.411,2.821-2.733,5.246t-2.513,4.231a18.275,18.275,0,0,1-2.226,2.844,2.847,2.847,0,0,1-1.829,1.035,1.785,1.785,0,0,1-1.411-.771,7.293,7.293,0,0,1-1.079-2.755,43.208,43.208,0,0,1-.794-5.444q-.331-3.46-.6-8.882.881-2.865,1.808-6.15t1.807-6.7q.881-3.415,1.675-6.877t1.366-6.679q.573-3.217.926-6.039a40.952,40.952,0,0,0,.353-5.025q0-2.82-.9-3.9a2.8,2.8,0,0,0-2.226-1.08,5.684,5.684,0,0,0-4.209,2.27,19.843,19.843,0,0,0-3.527,7.1,68.722,68.722,0,0,0-2.4,12.343,157.579,157.579,0,0,0-.881,18.008c0,2.67.046,5.1.136,7.306a61.444,61.444,0,0,1-3.576,6.293,28.724,28.724,0,0,1-3.416,4.342,12.408,12.408,0,0,1-3.261,2.469,7.108,7.108,0,0,1-3.152.793,7.578,7.578,0,0,1-3.351-.727,8.113,8.113,0,0,1-2.645-2.072,11.459,11.459,0,0,1-1.9-3.218,17.415,17.415,0,0,1-1.059-4.166q3.174-1.939,6.039-3.769a44.4,44.4,0,0,0,5.048-3.7,18.321,18.321,0,0,0,3.46-3.835,7.574,7.574,0,0,0,1.279-4.21,5.152,5.152,0,0,0-1.609-3.879,6.463,6.463,0,0,0-4.65-1.542,11.737,11.737,0,0,0-5.775,1.542,16.518,16.518,0,0,0-4.959,4.32,21.91,21.91,0,0,0-3.483,6.678,27.292,27.292,0,0,0-1.3,8.662c0,.136.011.268.014.4a5.98,5.98,0,0,1-4.071,1.492,2.219,2.219,0,0,1-.44-.044,2.293,2.293,0,0,0-.441-.044,45.231,45.231,0,0,0,2.138-7.428,35.41,35.41,0,0,0,.727-6.723,14.235,14.235,0,0,0-.486-4.011,7.675,7.675,0,0,0-1.278-2.623,4.661,4.661,0,0,0-1.851-1.433,5.582,5.582,0,0,0-2.16-.441,5.715,5.715,0,0,0-2.424.551,5.932,5.932,0,0,0-2.138,1.741,9.173,9.173,0,0,0-1.521,3.063,15.767,15.767,0,0,0-.573,4.563,20.142,20.142,0,0,0,1.719,8.882,11.776,11.776,0,0,0,4.232,5.047,23.7,23.7,0,0,1-1.808,3.438,15.535,15.535,0,0,1-2.181,2.733,10.218,10.218,0,0,1-2.447,1.807,5.446,5.446,0,0,1-2.513.661,3.485,3.485,0,0,1-2.777-1.168q-1.014-1.168-1.014-4.254,0-3.835.287-7.538t.616-6.943q.331-3.239.618-5.884a42.1,42.1,0,0,0,.287-4.365,2.916,2.916,0,0,0-.6-2.116,1.941,1.941,0,0,0-1.389-.573,8.186,8.186,0,0,0-2.38.374,2.838,2.838,0,0,0-1.764,1.345,5.325,5.325,0,0,0-.441,1.564q-.221,1.213-.441,3t-.419,3.945q-.2,2.16-.352,4.408t-.242,4.43c-.016.4-.029.778-.041,1.153-.859,1.687-1.64,3.161-2.338,4.4q-1.3,2.314-2.314,3.769a10.835,10.835,0,0,1-1.785,2.093,2.323,2.323,0,0,1-1.432.64q-1.1,0-1.543-1.72a17.3,17.3,0,0,1-.441-4.232q0-5.025.375-9.213t.793-7.3q.419-3.108.794-5.113a18.579,18.579,0,0,0,.375-2.667,1.025,1.025,0,0,0-.177-.705,1.025,1.025,0,0,0-.705-.176,7.656,7.656,0,0,0-1.19.154,10.132,10.132,0,0,0-1.719.485,5.96,5.96,0,0,0-1.609.9,2.023,2.023,0,0,0-.816,1.411l-.528,4.276a10.03,10.03,0,0,0-1.014-2.138,12.246,12.246,0,0,0-1.874-2.38,10.887,10.887,0,0,0-2.622-1.918,6.872,6.872,0,0,0-3.262-.793,10.975,10.975,0,0,0-5.554,1.521,15.247,15.247,0,0,0-4.673,4.276,22.089,22.089,0,0,0-3.218,6.568,28.09,28.09,0,0,0-1.19,8.4c0,.888.051,1.721.125,2.53-.226.387-.448.761-.661,1.107a37.623,37.623,0,0,1-2.931,4.232,9.119,9.119,0,0,1-2.094,1.984,3.009,3.009,0,0,1-1.432.507,2.062,2.062,0,0,1-1.9-.838,6.657,6.657,0,0,1-.529-3.218,25.652,25.652,0,0,1,.418-4.32q.419-2.424,1.036-5t1.345-5.113q.727-2.534,1.344-4.695t1.035-3.791a10.875,10.875,0,0,0,.419-2.336,1.557,1.557,0,0,0-.617-1.389,2.862,2.862,0,0,0-1.631-.418,10.788,10.788,0,0,0-2.6.353q-1.41.353-2.865.771t-2.888.772a11.18,11.18,0,0,1-2.666.353,7.253,7.253,0,0,0-.265-1.962,5.191,5.191,0,0,0-.793-1.675,4.043,4.043,0,0,0-1.322-1.168,3.754,3.754,0,0,0-1.851-.441,4.122,4.122,0,0,0-1.521.287,4.432,4.432,0,0,0-1.323.816,3.82,3.82,0,0,0-.947,1.323,4.4,4.4,0,0,0-.353,1.807,5.456,5.456,0,0,0,.462,2.292,5.591,5.591,0,0,0,1.257,1.763,6.051,6.051,0,0,0,1.852,1.19,8.12,8.12,0,0,0,2.2.573c-.06.352-.162.859-.309,1.52s-.353,1.411-.616,2.249-.581,1.726-.948,2.667-.771,1.851-1.212,2.733l-.441.926q-1.412,2.866-2.91,5.4a44.475,44.475,0,0,1-2.953,4.431,19.08,19.08,0,0,1-2.8,3.019,3.993,3.993,0,0,1-2.447,1.125,2.148,2.148,0,0,1-1.477-.573,4.253,4.253,0,0,1-1.058-1.94,18.131,18.131,0,0,1-.617-3.615q-.2-2.248-.2-5.6,0-1.322.044-3.152t.155-4.011q.109-2.182.242-4.606t.309-4.937h8.287l.441-2.688h-8.552q.175-2.953.353-5.8t.374-5.245q.2-2.4.354-4.232t.242-2.8h-4.5q-.53,4.541-1.168,9.059t-1.256,9.015h-3.879l-.484,2.688h4.011q-.573,4.85-.926,9.566t-.354,9.389a38.808,38.808,0,0,0,.486,6.656,15.27,15.27,0,0,0,1.41,4.474,6.218,6.218,0,0,0,2.27,2.535,5.912,5.912,0,0,0,3.064.793,6.538,6.538,0,0,0,3.571-1.212,18.425,18.425,0,0,0,3.791-3.482,44.144,44.144,0,0,0,3.945-5.533q2.005-3.261,4.034-7.361l.441-.926q.661-1.366,1.278-2.909t1.1-3q.484-1.455.771-2.645t.375-1.807a9.776,9.776,0,0,0,3.394-1.014,33.886,33.886,0,0,0,3.152-1.785q1.476-.948,2.667-1.7a3.95,3.95,0,0,1,1.9-.749l.264.265a19.137,19.137,0,0,1-1.191,3.173q-.837,1.808-1.873,3.9t-2.182,4.431q-1.147,2.336-2.072,4.738a42.68,42.68,0,0,0-1.542,4.827,18.89,18.89,0,0,0-.618,4.672q0,4.144,1.631,6.128a5.223,5.223,0,0,0,4.232,1.983,6.843,6.843,0,0,0,3.085-.771,11.421,11.421,0,0,0,3.284-2.755,39.4,39.4,0,0,0,3.813-5.378c.081-.133.165-.276.248-.414.073.263.138.537.222.788a14.343,14.343,0,0,0,2.579,4.783,10.335,10.335,0,0,0,3.681,2.822,10.373,10.373,0,0,0,4.275.925,6.355,6.355,0,0,0,3-.793,12.422,12.422,0,0,0,2.887-2.16,22.793,22.793,0,0,0,2.667-3.2,31.483,31.483,0,0,0,2.336-3.945,31.123,31.123,0,0,0,.485,3.9,13.39,13.39,0,0,0,1.014,3.219,6.084,6.084,0,0,0,1.653,2.182,3.791,3.791,0,0,0,2.447.793,4.489,4.489,0,0,0,2.755-1.08,14.983,14.983,0,0,0,2.844-3.108,49.289,49.289,0,0,0,3.063-4.959c.331-.6.672-1.238,1.018-1.89a22.285,22.285,0,0,0,.611,4.446,10.816,10.816,0,0,0,1.829,4.012,6.045,6.045,0,0,0,2.711,2.028,9.887,9.887,0,0,0,3.351.551,10.028,10.028,0,0,0,4.165-.882,14.014,14.014,0,0,0,3.615-2.358,19.249,19.249,0,0,0,3.02-3.461,27.1,27.1,0,0,0,2.381-4.232,2.588,2.588,0,0,0,.683.132q.463.044.86.044a8.752,8.752,0,0,0,4.517-1.3,18.975,18.975,0,0,0,.621,2.868,15.03,15.03,0,0,0,2.358,4.761,11.33,11.33,0,0,0,3.791,3.24,10.763,10.763,0,0,0,5.114,1.19,10.5,10.5,0,0,0,4.232-.969,16.368,16.368,0,0,0,4.474-3.086,35.043,35.043,0,0,0,4.629-5.467,57.281,57.281,0,0,0,3.148-5.067c.023.281.045.565.07.835a40.986,40.986,0,0,0,1.411,8.089,9.71,9.71,0,0,0,2.38,4.364,4.911,4.911,0,0,0,3.417,1.3,5.1,5.1,0,0,0,2.931-.992,13.767,13.767,0,0,0,3.02-3.129,48.586,48.586,0,0,0,3.416-5.466q1.828-3.328,4.166-8l.441-.926Zm-13.4-17.853q.176-3.614.485-7.075t.684-6.547q.373-3.085.837-5.422a27.434,27.434,0,0,1,.948-3.7q.484-1.366.969-1.367a.739.739,0,0,1,.705.529,3.879,3.879,0,0,1,.22,1.455,52.647,52.647,0,0,1-.4,5.973q-.4,3.417-1.1,7.252t-1.608,7.913q-.9,4.077-1.962,7.957Q-1283.023,709.6-1282.846,705.98Zm-120.062,3.857a3,3,0,0,1-.816-.353,2.209,2.209,0,0,1-.661-.617,1.53,1.53,0,0,1-.264-.9.849.849,0,0,1,.264-.617.9.9,0,0,1,.661-.265,1.244,1.244,0,0,1,1.147.816,4.681,4.681,0,0,1,.4,2.049A2.881,2.881,0,0,1-1402.908,709.837Zm42.347,18.668a21.7,21.7,0,0,1-2.2,5.532,11.808,11.808,0,0,1-2.953,3.482,5.209,5.209,0,0,1-3.108,1.213q-3.439,0-5.51-3.461t-2.072-10.073a24.409,24.409,0,0,1,.705-6.061,16.908,16.908,0,0,1,1.917-4.717,9.555,9.555,0,0,1,2.865-3.042,6.376,6.376,0,0,1,3.549-1.08,5.2,5.2,0,0,1,2.931.926,9.223,9.223,0,0,1,2.447,2.446,12.79,12.79,0,0,1,1.675,3.482,13.226,13.226,0,0,1,.617,3.99A28.93,28.93,0,0,1-1360.562,728.505Zm36.96-4.827a39.149,39.149,0,0,1-1.521,5.753,9.985,9.985,0,0,1-3.152-4.254,17.835,17.835,0,0,1-1.257-7.119,13.427,13.427,0,0,1,.287-3,6.662,6.662,0,0,1,.75-1.984,3.063,3.063,0,0,1,1.035-1.08,2.353,2.353,0,0,1,1.191-.331,2.533,2.533,0,0,1,1.169.309,2.663,2.663,0,0,1,1.036,1.058,7.205,7.205,0,0,1,.727,1.961,13.175,13.175,0,0,1,.287,2.976A31.454,31.454,0,0,1-1323.6,723.679Zm11.926,1.609a27.774,27.774,0,0,1,.705-6.744,17.379,17.379,0,0,1,1.763-4.562,7.582,7.582,0,0,1,2.337-2.6,4.545,4.545,0,0,1,2.424-.815,3.051,3.051,0,0,1,2.314,1.014,3.908,3.908,0,0,1,.947,2.777,6.883,6.883,0,0,1-1.079,3.593,17.843,17.843,0,0,1-2.667,3.372,26.657,26.657,0,0,1-3.417,2.887,30.411,30.411,0,0,1-3.328,2.094Z" transform="translate(1429.38 -559.69)"/><path class="a" d="M-1116.95,312.826h-7.383v64.321h7.266c14.494,0,19.092-11.507,19.092-33.983C-1097.975,322.113-1103.381,312.826-1116.95,312.826Z" transform="translate(1203.733 -289.706)"/><path class="a" d="M-1252.282,274.165l-14.71-46.518A5.416,5.416,0,0,0-1271.24,224h-153.891c-2.346,0-4.248,1.633-4.248,3.646V330.273c0,2.014,1.9,3.646,4.248,3.646h153.891a5.005,5.005,0,0,0,4.249-3.622c0-.015,0-.032.007-.047l14.7-46.5A15.9,15.9,0,0,0-1252.282,274.165Zm-110.865,44.715h-8.525V285.089c0-14.772.234-29.618.467-37.968h-.2c-2.911,13.708-10.114,46.684-16.449,71.759h-8.345c-4.749-21.79-12.3-57.264-15.2-71.917h-.316c.466,9.221.817,26.693.817,40.274V318.88h-8.2V239.6h12.968c6.407,24.9,12.609,55.115,14.5,65.472h.117c1.484-8.567,9.2-41.51,15.527-65.472h12.837Zm20.776,0h-16.348V239.6h17.625c18.289,0,26.486,12.771,26.486,37.558C-1314.607,304.071-1322.044,318.88-1342.371,318.88Zm53.168,1.174c-21.1,0-22.7-22.308-22.7-41.38,0-23.055,6.087-40.208,23.666-40.208,19.1,0,20.17,17.9,20.371,22.743h-8.766c-.158-2.685-.652-14.989-11.763-14.989-12.5,0-14.419,17.068-14.419,32.5,0,16.735,1.854,33.66,13.842,33.66,10.576,0,12.174-11.441,12.524-15.449h8.808C-1267.988,301.54-1269.992,320.054-1289.2,320.054Z" transform="translate(1429.38 -224)"/></svg>