<svg xmlns="http://www.w3.org/2000/svg" width="40.46" height="40.458" viewBox="0 0 40.46 40.458"><defs><style>.a{fill:#3b5382;}.b{fill:#fff;}</style></defs><g transform="translate(0)"><path class="a" d="M667.333,35.192A20.23,20.23,0,1,1,647.1,14.963,20.23,20.23,0,0,1,667.333,35.192Z" transform="translate(-626.873 -14.963)"/><path class="b" d="M646.12,17.5H635.685a3.253,3.253,0,0,0-3.253,3.253V43.962a3.253,3.253,0,0,0,3.253,3.253H646.12a3.254,3.254,0,0,0,3.253-3.253V20.756A3.254,3.254,0,0,0,646.12,17.5Zm-7.452,1.392h4.47c.142,0,.258.252.258.563s-.116.565-.258.565h-4.47c-.142,0-.258-.252-.258-.565S638.526,18.895,638.668,18.895ZM640.9,46.416a1.378,1.378,0,1,1,1.379-1.379A1.379,1.379,0,0,1,640.9,46.416Zm7.3-3.706H633.606v-20.7H648.2Z" transform="translate(-620.673 -12.13)"/></g></svg>